<svg xmlns="http://www.w3.org/2000/svg" xmlns:xlink="http://www.w3.org/1999/xlink" xml:space="preserve" id="Layer_1" x="0" y="0" version="1.1" viewBox="0 0 409.6 374"><style>.st5{fill-rule:evenodd;clip-rule:evenodd;fill:#fff}</style><defs><path id="SVGID_1_" d="M-359 0h768.6v378.2H-359z"/></defs><defs><path id="SVGID_00000062194561331770534060000012710011874376866451_" d="M-359 0h768.6v378.2H-359z"/></defs><defs><path id="SVGID_00000012461085633811542460000017926555493953295522_" d="M-348.9 0h748.3c5.6 0 10.1 4.5 10.1 10.1v358c0 5.6-4.5 10.1-10.1 10.1h-748.3c-5.6 0-10.1-4.5-10.1-10.1v-358c0-5.6 4.5-10.1 10.1-10.1z"/></defs><defs><path id="SVGID_00000062874709045009572630000015691256052596484759_" d="M0 0h409.6v374.2H0z"/></defs><clipPath id="SVGID_00000168835893298702664730000003594629864157540799_"><use xlink:href="#SVGID_1_" overflow="visible"/></clipPath><clipPath id="SVGID_00000060714219933641576980000002028689482964247707_" clip-path="url(#SVGID_00000168835893298702664730000003594629864157540799_)"><use xlink:href="#SVGID_00000062194561331770534060000012710011874376866451_" overflow="visible"/></clipPath><clipPath id="SVGID_00000090980723318400739660000009851667897107976374_" clip-path="url(#SVGID_00000060714219933641576980000002028689482964247707_)"><use xlink:href="#SVGID_00000012461085633811542460000017926555493953295522_" overflow="visible"/></clipPath><clipPath id="SVGID_00000069384045809065653210000014185965585769037749_" clip-path="url(#SVGID_00000090980723318400739660000009851667897107976374_)"><use xlink:href="#SVGID_00000062874709045009572630000015691256052596484759_" overflow="visible"/></clipPath><g clip-path="url(#SVGID_00000069384045809065653210000014185965585769037749_)" opacity=".3"><path fill="none" stroke="#fff" stroke-width="1.17" d="M301.1-226.3 167.7 576.6m-286.9-680.2 724.3 647.5m-30.2-599-638.2 485"/><path d="M225.6 352.6c-79.7 0-144.6-65-144.6-144.8S145.9 62.9 225.6 62.9s144.6 65 144.6 144.8-64.9 144.9-144.6 144.9zm0-291.2C145 61.4 79.5 127 79.5 207.8S145 354.2 225.6 354.2s146.1-65.7 146.1-146.4S306.2 61.4 225.6 61.4z" class="st5"/><path fill="#fff" fill-rule="evenodd" stroke="#fff" stroke-width="1.17" d="M210.8 231.3c-35.2 0-63.9-28.7-63.9-64s28.7-64 63.9-64 63.9 28.7 63.9 64-28.6 64-63.9 64zm0-128.8c-35.6 0-64.6 29-64.6 64.7s29 64.7 64.6 64.7c35.6 0 64.6-29 64.6-64.7 0-35.6-28.9-64.7-64.6-64.7z" clip-rule="evenodd"/><path fill="none" stroke="#fff" stroke-width="2" d="m80.8 213.8 133.9-151 147.6 195.5-281.5-44.5z"/><path d="M215.1 72.2c-5 0-9.1-4.1-9.1-9 0-5 4.1-9 9.1-9s9.1 4.1 9.1 9c-.1 4.9-4.1 9-9.1 9zm0-18.6c-5.2 0-9.5 4.3-9.5 9.5s4.3 9.5 9.5 9.5 9.5-4.3 9.5-9.5-4.3-9.5-9.5-9.5z" class="st5"/><path d="M214.7 57c-3.2 0-5.8 2.6-5.8 5.8 0 3.2 2.6 5.8 5.8 5.8 3.2 0 5.8-2.6 5.8-5.8 0-3.2-2.6-5.8-5.8-5.8zM80.5 222.6c-5 0-9.1-4.1-9.1-9s4.1-9 9.1-9 9.1 4.1 9.1 9-4.1 9-9.1 9zm0-18.6c-5.2 0-9.5 4.3-9.5 9.5s4.3 9.5 9.5 9.5 9.5-4.3 9.5-9.5-4.2-9.5-9.5-9.5z" class="st5"/><path d="M80.2 207.4c-3.2 0-5.8 2.6-5.8 5.8 0 3.2 2.6 5.8 5.8 5.8 3.2 0 5.8-2.6 5.8-5.8 0-3.2-2.6-5.8-5.8-5.8zm281.4 59.9c-5 0-9.1-4.1-9.1-9 0-5 4.1-9 9.1-9s9.1 4.1 9.1 9-4.1 9-9.1 9zm0-18.6c-5.2 0-9.5 4.3-9.5 9.5s4.3 9.5 9.5 9.5 9.5-4.3 9.5-9.5c.1-5.2-4.2-9.5-9.5-9.5z" class="st5"/><path d="M361.3 252.1c-3.2 0-5.8 2.6-5.8 5.8 0 3.2 2.6 5.8 5.8 5.8 3.2 0 5.8-2.6 5.8-5.8 0-3.2-2.6-5.8-5.8-5.8zM116.9 106.4c-1.3 1.3-1.3 3.5 0 4.8 1.3 1.3 3.5 1.3 4.8 0 1.3-1.3 1.3-3.5 0-4.8-1.3-1.4-3.5-1.4-4.8 0zm133.6-43.9c-1.3 1.3-1.3 3.5 0 4.8 1.3 1.3 3.5 1.3 4.8 0 1.3-1.3 1.3-3.5 0-4.8-1.3-1.4-3.5-1.4-4.8 0zm-48.4 286.3c-1.3 1.3-1.3 3.5 0 4.8 1.3 1.3 3.5 1.3 4.8 0 1.3-1.3 1.3-3.5 0-4.8-1.3-1.4-3.5-1.4-4.8 0zm138.2-229.7c-1.3 1.3-1.3 3.5 0 4.8 1.3 1.3 3.5 1.3 4.8 0 1.3-1.3 1.3-3.5 0-4.8-1.3-1.4-3.5-1.4-4.8 0zm-7.8 180.4c-1.3 1.3-1.3 3.5 0 4.8 1.3 1.3 3.5 1.3 4.8 0 1.3-1.3 1.3-3.5 0-4.8-1.3-1.3-3.5-1.3-4.8 0zm-224.4-4.8c-1.3 1.3-1.3 3.5 0 4.8 1.3 1.3 3.5 1.3 4.8 0 1.3-1.3 1.3-3.5 0-4.8-1.3-1.4-3.5-1.4-4.8 0zm118-89.8c-1.3 1.3-1.3 3.5 0 4.8 1.3 1.3 3.5 1.3 4.8 0 1.3-1.3 1.3-3.5 0-4.8-1.3-1.3-3.4-1.3-4.8 0z" class="st5"/></g></svg>
