<svg xmlns="http://www.w3.org/2000/svg" xmlns:xlink="http://www.w3.org/1999/xlink" xml:space="preserve" id="Layer_1" x="0" y="0" version="1.1" viewBox="0 0 390.1 374"><style>.st1{fill:none;stroke:#fff;stroke-width:.3345}</style><defs><path id="SVGID_1_" d="M-359.9 0h740c5.5 0 10 4.5 10 10v354c0 5.5-4.5 10-10 10h-740c-5.5 0-10-4.5-10-10V10c0-5.5 4.5-10 10-10z"/></defs><clipPath id="SVGID_00000062189037332309463010000008143852799385613957_"><use xlink:href="#SVGID_1_" overflow="visible"/></clipPath><g clip-path="url(#SVGID_00000062189037332309463010000008143852799385613957_)"><path d="M564.6 198.3c24.4 20.2 8.5 79.6-35.5 132.7-44 53.2-99.4 79.9-123.7 59.7-24.4-20.2-8.5-79.6 35.5-132.7 43.9-53.2 99.3-79.9 123.7-59.7z" class="st1"/><path d="M552.2 188.4c25.6 18.6 13.5 78.9-27.1 134.7-40.5 55.8-94.2 86-119.8 67.4-25.6-18.6-13.5-78.9 27.1-134.7 40.5-55.8 94.2-86 119.8-67.4z" class="st1"/><path d="M539.1 179.4c26.7 16.9 18.4 77.9-18.6 136.2-37 58.2-88.6 91.7-115.3 74.8-26.7-16.9-18.4-77.9 18.6-136.1 37-58.4 88.6-91.9 115.3-74.9z" class="st1"/><path d="M525.5 171.2c27.7 15.2 23.2 76.6-10 137-33.2 60.5-82.6 97.1-110.4 81.9-27.7-15.2-23.2-76.6 10-137 33.3-60.5 82.7-97.1 110.4-81.9z" class="st1"/><path d="M511.4 163.9c28.6 13.5 28 75-1.4 137.4-29.4 62.4-76.4 102.1-105 88.6-28.6-13.5-28-75 1.4-137.4 29.4-62.4 76.4-102.1 105-88.6z" class="st1"/><path d="M496.9 157.5c29.4 11.6 32.7 73.1 7.3 137.2-25.4 64.1-69.8 106.7-99.2 95-29.4-11.6-32.7-73.1-7.3-137.2 25.4-64.1 69.8-106.7 99.2-95z" class="st1"/><path d="M482 152c30.1 9.8 37.2 70.9 15.9 136.5-21.3 65.6-63 110.9-93.1 101.1-30.1-9.8-37.2-70.9-15.9-136.5C410.3 187.5 452 142.2 482 152z" class="st1"/><path d="M466.8 147.4c30.6 7.9 41.6 68.4 24.4 135.2-17.2 66.8-55.9 114.6-86.5 106.7-30.6-7.9-41.6-68.4-24.4-135.2 17.2-66.8 55.9-114.5 86.5-106.7z" class="st1"/><path d="M451.4 143.8c31.1 5.9 45.8 65.7 32.9 133.4-12.9 67.8-48.6 117.9-79.7 112-31.1-5.9-45.8-65.7-32.9-133.4 12.9-67.8 48.6-117.9 79.7-112z" class="st1"/><path d="M435.7 141.2c31.4 4 49.8 62.7 41.2 131.1-8.6 68.4-41.1 120.7-72.5 116.7s-49.8-62.7-41.2-131.1c8.7-68.4 41.1-120.6 72.5-116.7z" class="st1"/><path d="M419.9 139.6c31.6 2 53.7 59.4 49.3 128.3-4.3 68.8-33.4 123-65 121.1-31.6-2-53.7-59.4-49.3-128.3 4.4-68.9 33.5-123.1 65-121.1z" class="st1"/><path d="M404.1 139c31.6 0 57.3 55.9 57.3 124.9s-25.6 124.9-57.3 124.9c-31.6 0-57.3-55.9-57.3-124.9S372.5 139 404.1 139z" class="st1"/><path d="M388.2 139.3c31.6-2 60.7 52.2 65 121.1 4.3 68.8-17.8 126.3-49.3 128.3-31.6 2-60.7-52.2-65-121.1-4.3-68.9 17.8-126.3 49.3-128.3z" class="st1"/><path d="M372.4 140.7c31.4-4 63.8 48.3 72.5 116.7 8.6 68.4-9.8 127.1-41.2 131.1-31.4 4-63.8-48.3-72.5-116.7-8.6-68.4 9.8-127.1 41.2-131.1z" class="st1"/><path d="M356.7 143.1c31.1-5.9 66.7 44.2 79.7 112 12.9 67.8-1.8 127.5-32.9 133.4-31.1 5.9-66.7-44.2-79.7-112-12.9-67.8 1.9-127.5 32.9-133.4z" class="st1"/><path d="M341.2 146.4c30.6-7.9 69.4 39.9 86.5 106.7 17.2 66.8 6.2 127.4-24.4 135.2-30.6 7.9-69.4-39.9-86.5-106.7-17.2-66.8-6.2-127.3 24.4-135.2z" class="st1"/><path d="M325.9 150.7c30.1-9.8 71.8 35.5 93.1 101.1 21.3 65.6 14.2 126.7-15.9 136.5-30.1 9.8-71.8-35.5-93.1-101.1-21.3-65.6-14.1-126.7 15.9-136.5z" class="st1"/><path d="M311 155.9c29.4-11.6 73.8 30.9 99.2 95 25.4 64.1 22.1 125.6-7.3 137.2-29.4 11.6-73.8-30.9-99.2-95-25.4-64.1-22.1-125.5 7.3-137.2z" class="st1"/><path d="M296.4 162.1c28.6-13.5 75.6 26.2 105 88.6 29.4 62.4 30 123.9 1.4 137.4s-75.6-26.2-105-88.6c-29.5-62.4-30.1-123.9-1.4-137.4z" class="st1"/><path d="M282.2 169.2c27.7-15.2 77.1 21.4 110.4 81.9 33.2 60.4 37.7 121.8 10 137-27.7 15.2-77.1-21.4-110.4-81.9-33.3-60.4-37.8-121.7-10-137z" class="st1"/><path d="M268.4 177.2c26.7-17 78.3 16.5 115.3 74.8 37 58.2 45.3 119.2 18.6 136.2-26.7 17-78.3-16.5-115.3-74.8s-45.3-119.3-18.6-136.2z" class="st1"/><path d="M255.2 186c25.6-18.6 79.2 11.6 119.8 67.4 40.5 55.8 52.7 116.1 27.1 134.7-25.6 18.6-79.2-11.6-119.8-67.4-40.5-55.8-52.7-116.1-27.1-134.7z" class="st1"/><path d="M242.6 195.6c24.4-20.2 79.8 6.6 123.7 59.7 44 53.2 59.9 112.6 35.5 132.7-24.4 20.2-79.8-6.6-123.7-59.7-44-53.1-59.9-112.5-35.5-132.7z" class="st1"/><path d="M230.6 206c23.1-21.7 80 1.6 127.3 51.8 47.2 50.3 66.8 108.6 43.7 130.3-23.1 21.7-80-1.6-127.3-51.8-47.1-50.3-66.7-108.6-43.7-130.3z" class="st1"/><path d="M219.3 217.1c21.7-23.1 80-3.5 130.3 43.8 50.3 47.2 73.5 104.2 51.8 127.3-21.7 23.1-80 3.5-130.3-43.7-50.2-47.3-73.4-104.3-51.8-127.4z" class="st1"/><path d="M208.7 229c20.2-24.4 79.6-8.5 132.7 35.5 53.2 44 79.9 99.4 59.7 123.7-20.2 24.4-79.6 8.5-132.7-35.5-53.1-44-79.8-99.4-59.7-123.7z" class="st1"/><path d="M198.9 241.4c18.6-25.6 78.9-13.5 134.7 27.1 55.8 40.5 86 94.2 67.4 119.8-18.6 25.6-78.9 13.5-134.7-27.1-55.8-40.6-86-94.2-67.4-119.8z" class="st1"/><path d="M189.9 254.5c17-26.7 77.9-18.4 136.2 18.6 58.2 37 91.7 88.6 74.8 115.3-16.9 26.7-77.9 18.4-136.1-18.6-58.4-37-91.9-88.6-74.9-115.3z" class="st1"/><ellipse cx="291.1" cy="328.2" class="st1" rx="57.3" ry="124.9" transform="rotate(-61.2 291.164 328.223)"/><path d="M174.4 282.1c13.5-28.6 75-28 137.4 1.4 62.4 29.4 102.1 76.4 88.6 105-13.5 28.6-75 28-137.4-1.4-62.4-29.3-102.1-76.3-88.6-105z" class="st1"/><ellipse cx="284.1" cy="342.6" class="st1" rx="57.3" ry="124.9" transform="rotate(-68.4 284.072 342.61)"/><path d="M162.5 311.5c9.8-30.1 70.9-37.2 136.5-15.9 65.6 21.3 110.9 63 101.1 93.1-9.8 30.1-70.9 37.2-136.5 15.9-65.7-21.3-110.9-63-101.1-93.1z" class="st1"/><path d="M157.9 326.7c7.9-30.6 68.4-41.6 135.2-24.4 66.8 17.2 114.6 55.9 106.7 86.5-7.9 30.6-68.4 41.6-135.2 24.4-66.8-17.1-114.6-55.8-106.7-86.5z" class="st1"/><path d="M154.3 342.2c5.9-31.1 65.7-45.8 133.4-32.9 67.8 12.9 117.9 48.6 112 79.7-5.9 31.1-65.7 45.8-133.4 32.9-67.8-13-117.9-48.6-112-79.7z" class="st1"/><path d="M151.7 357.8c4-31.4 62.7-49.8 131.1-41.2 68.4 8.6 120.7 41.1 116.7 72.5s-62.7 49.8-131.1 41.2c-68.4-8.6-120.7-41.1-116.7-72.5z" class="st1"/><path d="M150.1 373.6c2-31.6 59.4-53.7 128.3-49.3 68.8 4.3 123 33.4 121.1 65-2 31.6-59.4 53.7-128.3 49.3-68.9-4.3-123.1-33.4-121.1-65z" class="st1"/><ellipse cx="274.4" cy="389.5" class="st1" rx="124.9" ry="57.3"/><path d="M149.8 405.3c-2-31.6 52.2-60.7 121.1-65 68.8-4.3 126.3 17.8 128.3 49.3 2 31.6-52.2 60.7-121.1 65-68.9 4.4-126.3-17.7-128.3-49.3z" class="st1"/><path d="M151.2 421.1c-4-31.4 48.3-63.8 116.7-72.5 68.4-8.6 127.1 9.8 131.1 41.2 4 31.4-48.3 63.8-116.7 72.5-68.5 8.7-127.2-9.8-131.1-41.2z" class="st1"/><path d="M153.5 436.8c-5.9-31.1 44.2-66.7 112-79.7C333.3 344.2 393 359 398.9 390c5.9 31.1-44.2 66.7-112 79.7-67.7 12.9-127.4-1.8-133.4-32.9z" class="st1"/><path d="M156.9 452.3c-7.9-30.6 39.9-69.4 106.7-86.5 66.8-17.2 127.4-6.2 135.2 24.4 7.9 30.6-39.9 69.4-106.7 86.5-66.8 17.2-127.4 6.3-135.2-24.4z" class="st1"/><path d="M161.2 467.6c-9.8-30.1 35.5-71.8 101.1-93.1 65.6-21.3 126.7-14.2 136.5 15.9 9.8 30.1-35.5 71.8-101.1 93.1-65.6 21.3-126.8 14.2-136.5-15.9z" class="st1"/><path d="M166.4 482.6c-11.6-29.4 30.9-73.8 95-99.2 64.1-25.4 125.6-22.1 137.2 7.3 11.6 29.4-30.9 73.8-95 99.2-64.1 25.4-125.5 22.1-137.2-7.3z" class="st1"/><path d="M172.6 497.2c-13.5-28.6 26.2-75.6 88.6-105 62.4-29.4 123.9-30 137.4-1.4s-26.2 75.6-88.6 105c-62.4 29.4-123.9 30-137.4 1.4z" class="st1"/><path d="M179.7 511.4c-15.2-27.7 21.4-77.1 81.9-110.4 60.5-33.2 121.8-37.7 137-10 15.2 27.7-21.4 77.1-81.9 110.4-60.4 33.3-121.8 37.7-137 10z" class="st1"/><path d="M187.7 525.1c-16.9-26.7 16.5-78.3 74.8-115.3s119.2-45.3 136.1-18.6c17 26.7-16.5 78.3-74.8 115.3-58.2 37-119.2 45.3-136.1 18.6z" class="st1"/><path d="M196.5 538.3c-18.6-25.6 11.6-79.2 67.4-119.8 55.8-40.5 116.1-52.7 134.7-27.1 18.6 25.6-11.6 79.2-67.4 119.8-55.8 40.6-116.1 52.7-134.7 27.1z" class="st1"/><ellipse cx="399.9" cy="519.2" class="st1" rx="57.3" ry="124.9"/></g><path fill="none" stroke="#fff" stroke-opacity=".6" stroke-width="2" d="M-29.9 387c28.4-32.4 152 26.1 245.1-105.4s125.7-9.5 193.9-61.6" clip-path="url(#SVGID_00000062189037332309463010000008143852799385613957_)"/></svg>