<?xml version="1.0" encoding="utf-8"?>
<!-- Generator: Adobe Illustrator 21.1.0, SVG Export Plug-In . SVG Version: 6.00 Build 0)  -->
<svg version="1.1" id="MGH_LOGO" xmlns="http://www.w3.org/2000/svg" xmlns:xlink="http://www.w3.org/1999/xlink" x="0px" y="0px"
	 viewBox="-100 -100 632 632" style="enable-background:new 0 0 432 432;" xml:space="preserve">
<style type="text/css">
	.st0{fill:#E21A23;}
	.st1{fill:#FFFFFF;}
</style>
<rect class="st0" width="432" height="432"/>
<path class="st1" d="M142.7,139.7l-6.6-69.7l-23.5,69.7h-23L64.8,69.8l-5.1,69.9H35.2l11-104.8h30l26.2,72.1L127,34.9h30l11.7,104.8
	H142.7z"/>
<path class="st1" d="M221.7,142c-25.3,0-40.8-18.2-40.8-41c0-23.9,18.5-41.6,42.1-41.6c17.4,0,27,8.2,28.1,9.7l-9.9,15.2
	c-4.3-2.9-9.4-4.5-14.6-4.7c-12.2,0-20.4,9-20.4,20.9c0,12.4,6.1,21.2,19,21.2c9.3,0,17.1-5.3,17.6-5.7l9.6,15.7
	C251.9,132.1,241.2,142,221.7,142z"/>
<path class="st1" d="M95.9,396.8V353H61.1v43.8H35.2V292h25.8v40h34.8v-40h25.8v104.8H95.9z"/>
<path class="st1" d="M156.3,317.6c-7.5-0.1-13.4-6.1-13.4-13.6c0,0,0,0,0,0c0.2-7.4,6.3-13.2,13.6-13c7.4,0.2,13.2,6.3,13,13.6
	C169.4,311.8,163.5,317.6,156.3,317.6L156.3,317.6z M143.5,396.8v-67.2h25.2v67.2H143.5z"/>
<path class="st1" d="M190.4,396.8V292h24v104.8H190.4z"/>
<path class="st1" d="M236.1,396.8V292h24v104.8H236.1z"/>
<path class="st1" d="M82.3,269.9c-32,0-54.8-20.7-54.8-54.2c0-34.9,24-55.9,56.5-55.9c24,0,34.6,9.9,36.9,12.2l-11.2,16.6
	c-7.2-5.1-15.7-7.7-24.5-7.5c-18.4,0-31.7,12.4-31.7,33.1c0,23.4,14.9,34.2,31.4,34.2c4.7,0.1,9.5-0.6,14-1.9v-15.1H80v-18.7h41.8
	v45.5C120.5,259.2,108.4,269.9,82.3,269.9z"/>
<path class="st1" d="M376.2,265.3h-25.6l-12.7-48l-11.6,48h-24.7l-22.3-77.9h23.9l12.2,50.2l12.9-50.2h21.2l12.9,50.2l11.8-50.2
	h22.9L376.2,265.3z"/>
<path class="st1" d="M189,205.7c-8.1-0.2-15.8,3.9-20.2,10.7v49.3h-25.3v-78.3h20.8v10.4c0.5-0.8,10-12.8,26.1-12.8
	c0,0,1.1,0,1.7,0.1s1.5,0.2,1.5,0.2L189,205.7z"/>
<path class="st1" d="M248.3,266v-6.6c-6.2,5.3-14,8.3-22.1,8.4c-15.8,0-25.4-10.6-25.4-25.6c0-24.6,34.9-26.7,43.1-26.7h1.7
	c0-2.5,0.6-7.3-1.9-9.3c-1.4-1.1-3.8-2.5-9.3-2.5c-5.5,0.1-11,1.1-16.2,3c-1.5,0.5-2.7,1-3.6,1.4l0,0l-7.8-15.3l0,0
	c1.3-0.8,2.6-1.5,4-2.1c7.8-3.5,16.3-5.3,24.8-5.2c12,0,21,3,27.2,9.2c6.8,6.8,6.3,15.9,6.3,25.6V266H248.3z M245.9,229.4
	c-6,0-17.1-0.3-21.6,4.3c-1.8,1.7-2.7,4.1-2.7,6.6c0,7.6,5.7,9.5,9.8,9.5c5.2,0,10.3-1.5,14.5-4.4V229.4z"/>
</svg>
