<svg xmlns="http://www.w3.org/2000/svg" viewBox="0 0 850 650"><path fill="none" stroke="#fff" class="dcg-svg-curve" paint-order="fill stroke markers" d="M-8 618.142h0l26.098-3.266 55.854-7.405 52.663-7.406 48.186-7.194 45.336-7.194 41.352-6.982 38.814-6.983 35.284-6.77 33.03-6.771 29.914-6.56 27.92-6.559 25.182-6.348 23.426-6.347 21.028-6.136 19.489-6.136 17.997-6.136 16.01-5.925 14.708-5.924 12.995-5.713 11.866-5.713 10.779-5.713 9.388-5.501 8.451-5.502 7.55-5.501 6.683-5.501 5.853-5.502 5.237-5.712 4.27-5.502 3.298-5.078 2.71-5.078 2.07-4.867 1.582-4.866 1.114-4.867.674-4.866.257-4.867-.15-5.078-.58-5.29-1.028-5.5-1.553-5.925-2.128-6.348-2.738-6.77-3.577-7.618-4.601-8.675-6.175-10.58-9.902-15.869-12.578-20.312-5.967-10.58-4.36-8.675-3.314-7.617-2.462-6.77-1.782-6.137-1.229-5.713-.753-5.501-.295-5.29.145-5.078.557-4.866.991-4.867 1.378-4.655 1.819-4.655 2.397-4.866 2.927-4.867 3.646-5.078 4.471-5.29 5.411-5.501 6.222-5.501 7.069-5.502 7.95-5.501 8.869-5.501 9.82-5.502 10.81-5.5 11.832-5.502 13.409-5.713 14.59-5.713 15.812-5.713 17.73-5.924 19.13-5.925 21.336-6.136 22.935-6.136 25.46-6.348 27.278-6.347.11-.024" stroke-linecap="round" stroke-linejoin="round" stroke-miterlimit="10" stroke-width="5" stroke-opacity=".5"/><g fill="none" stroke="#fff" paint-order="fill stroke markers" stroke-linecap="round" stroke-linejoin="round" stroke-miterlimit="10" stroke-opacity=".5"><path class="dcg-svg-curve" d="M832.526 650h0l21.474-.921"/><path class="dcg-svg-curve" d="M749.492 650h0L854 645.411"/><path class="dcg-svg-curve" d="M670.193 650h0L854 641.738"/><path class="dcg-svg-curve" d="M594.563 650h0L854 638.06"/><path class="dcg-svg-curve" d="M522.541 650h0L854 634.374"/><path class="dcg-svg-curve" d="M454.062 650h0L854 630.682"/><path class="dcg-svg-curve" d="M389.063 650h0L854 626.983"/><path class="dcg-svg-curve" d="M327.478 650h0L854 623.277"/><path class="dcg-svg-curve" d="M269.246 650h0L854 619.563"/><path class="dcg-svg-curve" d="M214.302 650h0L854 615.84"/><path class="dcg-svg-curve" d="M162.583 650h0L854 612.11"/><path class="dcg-svg-curve" d="M114.023 650h0L854 608.37"/><path class="dcg-svg-curve" d="M68.561 650h0L854 604.62"/><path class="dcg-svg-curve" d="M26.132 650h0L854 600.86"/><path class="dcg-svg-curve" d="M-4 649.431h0l858-52.343"/><path class="dcg-svg-curve" d="M-4 647.122h0l858-53.817"/><path class="dcg-svg-curve" d="M-4 644.865h0l858-55.355"/><path class="dcg-svg-curve" d="M-4 642.662h0l858-56.96"/><path class="dcg-svg-curve" d="M-4 640.518h0l858-58.64"/><path class="dcg-svg-curve" d="M-4 638.434h0l858-60.393"/><path class="dcg-svg-curve" d="M-4 636.416h0l858-62.228"/><path class="dcg-svg-curve" d="M-4 634.467h0l858-64.15"/><path class="dcg-svg-curve" d="M-4 632.591h0l858-66.163"/><path class="dcg-svg-curve" d="M-4 630.794h0l858-68.274"/><path class="dcg-svg-curve" d="M-4 629.08h0l858-70.49"/><path class="dcg-svg-curve" d="M-4 627.456h0l858-72.817"/><path class="dcg-svg-curve" d="M-4 625.927h0l858-75.264"/><path class="dcg-svg-curve" d="M-4 624.5h0l858-77.838"/><path class="dcg-svg-curve" d="M-4 623.18h0l858-80.548"/><path class="dcg-svg-curve" d="M-4 621.98h0l858-83.407"/><path class="dcg-svg-curve" d="M-4 620.904h0l858-86.422"/><path class="dcg-svg-curve" d="M-4 619.963h0l858-89.608"/><path class="dcg-svg-curve" d="M-4 619.168h0l858-92.977"/><path class="dcg-svg-curve" d="M-4 618.53h0l858-96.545"/><path class="dcg-svg-curve" d="M-4 618.063h0l858-100.328"/><path class="dcg-svg-curve" d="M-4 617.779h0l858-104.342"/><path class="dcg-svg-curve" d="M-4 617.694h0l858-108.608"/><path class="dcg-svg-curve" d="M-4 617.826h0l858-113.148"/><path class="dcg-svg-curve" d="M-4 618.193h0l858-117.986"/><path class="dcg-svg-curve" d="M-4 618.818h0l858-123.152"/><path class="dcg-svg-curve" d="M-4 619.725h0l858-128.674"/><path class="dcg-svg-curve" d="M-4 620.94h0l858-134.588"/><path class="dcg-svg-curve" d="M-4 622.494h0L854 481.56"/><path class="dcg-svg-curve" d="M-4 624.421h0l858-147.753"/><path class="dcg-svg-curve" d="M-4 626.76h0l858-155.097"/><path class="dcg-svg-curve" d="M-4 629.558h0l858-163.025"/><path class="dcg-svg-curve" d="M-4 632.862h0l858-171.6"/><path class="dcg-svg-curve" d="M-4 636.734h0l858-180.898"/><path class="dcg-svg-curve" d="M-4 641.24h0l858-191.007"/><path class="dcg-svg-curve" d="M-4 646.457h0l858-202.025"/><path class="dcg-svg-curve" d="M5.933 650h0L854 438.406"/><path class="dcg-svg-curve" d="M31.523 650h0L854 432.125"/><path class="dcg-svg-curve" d="M57.661 650h0L854 425.553"/><path class="dcg-svg-curve" d="M84.282 650h0L854 418.645"/><path class="dcg-svg-curve" d="M111.323 650h0L854 411.35"/><path class="dcg-svg-curve" d="M138.718 650h0L854 403.606"/><path class="dcg-svg-curve" d="M166.406 650h0L854 395.336"/><path class="dcg-svg-curve" d="M194.322 650h0L854 386.445"/><path class="dcg-svg-curve" d="M222.403 650h0L854 376.818"/><path class="dcg-svg-curve" d="M250.583 650h0L854 366.306"/><path class="dcg-svg-curve" d="M278.801 650h0L854 354.723"/><path class="dcg-svg-curve" d="M306.992 650h0L854 341.827"/><path class="dcg-svg-curve" d="M335.093 650h0L854 327.296"/><path class="dcg-svg-curve" d="M363.038 650h0L854 310.704"/><path class="dcg-svg-curve" d="M390.766 650h0L854 291.46"/><path class="dcg-svg-curve" d="M418.212 650h0L854 268.733"/><path class="dcg-svg-curve" d="M445.313 650h0L854 241.312"/><path class="dcg-svg-curve" d="M472.003 650h0L854 207.362"/><path class="dcg-svg-curve" d="M498.221 650h0L854 163.963"/><path class="dcg-svg-curve" d="M523.902 650h0L854 106.182"/><path class="dcg-svg-curve" d="M548.983 650h0L854 24.964"/><path class="dcg-svg-curve" d="M573.398 650h0L817.148 0"/><path class="dcg-svg-curve" d="M597.086 650h0l174.2-650"/><path class="dcg-svg-curve" d="M619.982 650h0L728.532 0"/><path class="dcg-svg-curve" d="M642.023 650h0l46.8-650"/><path class="dcg-svg-curve" d="M663.143 650h0L652.093 0"/><path class="dcg-svg-curve" d="M683.281 650h0l-65-650"/><path class="dcg-svg-curve" d="M702.372 650h0L587.322 0"/><path class="dcg-svg-curve" d="M720.352 650h0L559.152 0"/><path class="dcg-svg-curve" d="M737.158 650h0L533.708 0"/><path class="dcg-svg-curve" d="M752.726 650h0L510.926 0"/><path class="dcg-svg-curve" d="M766.992 650h0L490.742 0"/><path class="dcg-svg-curve" d="M779.892 650h0L473.092 0"/><path class="dcg-svg-curve" d="M791.363 650h0L457.913 0"/><path class="dcg-svg-curve" d="M801.341 650h0L445.141 0"/><path class="dcg-svg-curve" d="M809.762 650h0L434.712 0"/><path class="dcg-svg-curve" d="M816.563 650h0l-390-650"/></g><path fill="none" stroke="#fff" class="dcg-svg-point" paint-order="fill stroke markers" d="M637.399 351.46v.2h.2v-.2" stroke-linecap="round" stroke-linejoin="round" stroke-miterlimit="10" stroke-width="9" stroke-opacity=".9"/></svg>